<svg width="864" height="864" viewBox="0 0 864 864" fill="none" xmlns="http://www.w3.org/2000/svg">
<g filter="url(#filter0_d_1_73)">
<circle cx="432" cy="432" r="400" fill="white"/>
<circle cx="432" cy="432" r="373" stroke="url(#paint0_radial_1_73)" stroke-width="54"/>
</g>
<g filter="url(#filter1_i_1_73)">
<circle cx="432" cy="432" r="347" fill="white"/>
</g>
<g filter="url(#filter2_d_1_73)">
<path d="M252.812 181.45C255.89 180.262 258.887 178.75 261.803 176.914C264.719 175.024 267.392 172.675 269.822 169.867H275.168V226H267.635V180.316C266.987 180.91 266.177 181.531 265.205 182.179C264.287 182.827 263.261 183.448 262.127 184.042C261.047 184.636 259.886 185.203 258.644 185.743C257.456 186.283 256.295 186.742 255.161 187.12L252.812 181.45ZM298.533 181.45C301.611 180.262 304.608 178.75 307.524 176.914C310.44 175.024 313.113 172.675 315.543 169.867H320.889V226H313.356V180.316C312.708 180.91 311.898 181.531 310.926 182.179C310.008 182.827 308.982 183.448 307.848 184.042C306.768 184.636 305.607 185.203 304.365 185.743C303.177 186.283 302.016 186.742 300.882 187.12L298.533 181.45Z" fill="black"/>
<path d="M145.812 287.45C148.89 286.262 151.887 284.75 154.803 282.914C157.719 281.024 160.392 278.675 162.822 275.867H168.168V332H160.635V286.316C159.987 286.91 159.177 287.531 158.205 288.179C157.287 288.827 156.261 289.448 155.127 290.042C154.047 290.636 152.886 291.203 151.644 291.743C150.456 292.283 149.295 292.742 148.161 293.12L145.812 287.45ZM188.05 303.893C188.05 294.497 189.697 287.261 192.991 282.185C196.339 277.109 200.956 274.571 206.842 274.571C212.728 274.571 217.318 277.109 220.612 282.185C223.96 287.261 225.634 294.497 225.634 303.893C225.634 313.289 223.96 320.525 220.612 325.601C217.318 330.677 212.728 333.215 206.842 333.215C200.956 333.215 196.339 330.677 192.991 325.601C189.697 320.525 188.05 313.289 188.05 303.893ZM217.696 303.893C217.696 300.815 217.507 297.899 217.129 295.145C216.805 292.391 216.211 289.988 215.347 287.936C214.537 285.884 213.43 284.264 212.026 283.076C210.622 281.834 208.894 281.213 206.842 281.213C204.79 281.213 203.062 281.834 201.658 283.076C200.254 284.264 199.12 285.884 198.256 287.936C197.446 289.988 196.852 292.391 196.474 295.145C196.15 297.899 195.988 300.815 195.988 303.893C195.988 306.971 196.15 309.887 196.474 312.641C196.852 315.395 197.446 317.798 198.256 319.85C199.12 321.902 200.254 323.549 201.658 324.791C203.062 325.979 204.79 326.573 206.842 326.573C208.894 326.573 210.622 325.979 212.026 324.791C213.43 323.549 214.537 321.902 215.347 319.85C216.211 317.798 216.805 315.395 217.129 312.641C217.507 309.887 217.696 306.971 217.696 303.893Z" fill="black"/>
<path d="M154.094 428.304C154.094 439.428 151.313 447.852 145.751 453.576C140.243 459.246 132.035 462.108 121.127 462.162L120.884 455.844C124.286 455.844 127.337 455.52 130.037 454.872C132.791 454.224 135.194 453.198 137.246 451.794C139.298 450.336 140.999 448.473 142.349 446.205C143.753 443.937 144.779 441.156 145.427 437.862C144.023 438.51 142.43 439.05 140.648 439.482C138.866 439.86 137.03 440.049 135.14 440.049C131.954 440.049 129.254 439.59 127.04 438.672C124.826 437.7 123.017 436.431 121.613 434.865C120.209 433.245 119.183 431.409 118.535 429.357C117.941 427.251 117.644 425.064 117.644 422.796C117.644 420.798 117.995 418.719 118.697 416.559C119.399 414.399 120.452 412.428 121.856 410.646C123.314 408.864 125.15 407.406 127.364 406.272C129.578 405.138 132.197 404.571 135.221 404.571C138.299 404.571 140.999 405.111 143.321 406.191C145.697 407.271 147.668 408.837 149.234 410.889C150.854 412.941 152.069 415.452 152.879 418.422C153.689 421.338 154.094 424.632 154.094 428.304ZM135.95 433.893C137.84 433.893 139.622 433.731 141.296 433.407C142.97 433.029 144.59 432.489 146.156 431.787C146.21 431.193 146.237 430.626 146.237 430.086C146.237 429.492 146.237 428.898 146.237 428.304C146.237 425.982 146.075 423.768 145.751 421.662C145.427 419.502 144.833 417.639 143.969 416.073C143.159 414.453 142.052 413.184 140.648 412.266C139.244 411.294 137.462 410.808 135.302 410.808C133.52 410.808 132.008 411.186 130.766 411.942C129.524 412.698 128.498 413.67 127.688 414.858C126.878 415.992 126.284 417.261 125.906 418.665C125.582 420.015 125.42 421.338 125.42 422.634C125.42 426.306 126.284 429.114 128.012 431.058C129.794 432.948 132.44 433.893 135.95 433.893Z" fill="black"/>
<path d="M198.242 596.42C198.242 598.688 197.837 600.794 197.027 602.738C196.271 604.628 195.11 606.302 193.544 607.76C192.032 609.164 190.115 610.244 187.793 611C185.471 611.81 182.798 612.215 179.774 612.215C176.264 612.215 173.321 611.729 170.945 610.757C168.623 609.731 166.76 608.462 165.356 606.95C163.952 605.438 162.953 603.791 162.359 602.009C161.765 600.173 161.468 598.445 161.468 596.825C161.468 595.259 161.711 593.774 162.197 592.37C162.737 590.912 163.412 589.562 164.222 588.32C165.086 587.078 166.058 585.971 167.138 584.999C168.272 583.973 169.46 583.082 170.702 582.326C165.41 579.302 162.764 574.847 162.764 568.961C162.764 566.909 163.169 564.965 163.979 563.129C164.789 561.239 165.923 559.592 167.381 558.188C168.893 556.784 170.702 555.677 172.808 554.867C174.914 554.003 177.263 553.571 179.855 553.571C182.879 553.571 185.471 554.03 187.631 554.948C189.791 555.866 191.546 557.054 192.896 558.512C194.3 559.916 195.299 561.482 195.893 563.21C196.541 564.938 196.865 566.612 196.865 568.232C196.865 569.798 196.622 571.283 196.136 572.687C195.704 574.037 195.083 575.306 194.273 576.494C193.517 577.682 192.626 578.735 191.6 579.653C190.628 580.571 189.602 581.381 188.522 582.083C194.894 585.107 198.134 589.886 198.242 596.42ZM169.082 596.906C169.082 597.878 169.244 598.904 169.568 599.984C169.946 601.01 170.567 601.982 171.431 602.9C172.295 603.764 173.402 604.493 174.752 605.087C176.102 605.681 177.803 605.978 179.855 605.978C181.691 605.978 183.284 605.708 184.634 605.168C186.038 604.628 187.172 603.953 188.036 603.143C188.9 602.279 189.548 601.307 189.98 600.227C190.412 599.147 190.628 598.04 190.628 596.906C190.628 595.178 190.304 593.666 189.656 592.37C189.008 591.074 188.063 589.94 186.821 588.968C185.633 587.996 184.175 587.186 182.447 586.538C180.773 585.836 178.856 585.242 176.696 584.756C174.266 586.106 172.376 587.78 171.026 589.778C169.73 591.776 169.082 594.152 169.082 596.906ZM189.332 568.151C189.332 567.341 189.143 566.45 188.765 565.478C188.441 564.506 187.901 563.615 187.145 562.805C186.389 561.941 185.417 561.239 184.229 560.699C183.041 560.105 181.583 559.808 179.855 559.808C178.127 559.808 176.642 560.078 175.4 560.618C174.212 561.158 173.24 561.86 172.484 562.724C171.728 563.534 171.161 564.452 170.783 565.478C170.459 566.45 170.297 567.422 170.297 568.394C170.297 569.582 170.513 570.77 170.945 571.958C171.377 573.146 172.052 574.253 172.97 575.279C173.888 576.305 175.076 577.223 176.534 578.033C178.046 578.843 179.828 579.491 181.88 579.977C184.148 578.627 185.957 577.061 187.307 575.279C188.657 573.443 189.332 571.067 189.332 568.151Z" fill="black"/>
<path d="M290.376 709.621C290.7 705.301 291.456 700.765 292.644 696.013C293.886 691.207 295.398 686.563 297.18 682.081C298.962 677.545 300.906 673.36 303.012 669.526C305.172 665.638 307.278 662.479 309.33 660.049H282.033V653.488H317.754V659.725C315.972 661.777 314.001 664.612 311.841 668.23C309.681 671.794 307.629 675.817 305.685 680.299C303.795 684.727 302.148 689.479 300.744 694.555C299.394 699.577 298.557 704.599 298.233 709.621H290.376Z" fill="black"/>
<path d="M414.243 718.482C414.243 713.028 414.999 708.222 416.511 704.064C418.023 699.852 420.156 696.315 422.91 693.453C425.718 690.591 429.093 688.431 433.035 686.973C437.031 685.461 441.513 684.678 446.481 684.624L447.048 690.942C443.862 690.996 440.946 691.347 438.3 691.995C435.708 692.643 433.386 693.669 431.334 695.073C429.282 696.477 427.554 698.313 426.15 700.581C424.746 702.795 423.693 705.549 422.991 708.843C424.395 708.195 425.961 707.655 427.689 707.223C429.471 706.791 431.307 706.575 433.197 706.575C436.383 706.575 439.083 707.061 441.297 708.033C443.511 709.005 445.32 710.301 446.724 711.921C448.128 713.487 449.127 715.323 449.721 717.429C450.369 719.481 450.693 721.641 450.693 723.909C450.693 725.961 450.342 728.067 449.64 730.227C448.938 732.387 447.858 734.358 446.4 736.14C444.996 737.922 443.187 739.38 440.973 740.514C438.759 741.648 436.14 742.215 433.116 742.215C426.96 742.215 422.262 740.109 419.022 735.897C415.836 731.685 414.243 725.88 414.243 718.482ZM432.387 712.731C430.497 712.731 428.742 712.92 427.122 713.298C425.502 713.622 423.882 714.135 422.262 714.837C422.208 715.431 422.154 716.052 422.1 716.7C422.1 717.294 422.1 717.888 422.1 718.482C422.1 720.858 422.262 723.099 422.586 725.205C422.91 727.311 423.477 729.174 424.287 730.794C425.151 732.36 426.285 733.629 427.689 734.601C429.093 735.519 430.875 735.978 433.035 735.978C434.817 735.978 436.329 735.6 437.571 734.844C438.813 734.088 439.839 733.116 440.649 731.928C441.459 730.74 442.026 729.471 442.35 728.121C442.728 726.717 442.917 725.367 442.917 724.071C442.917 720.399 442.026 717.591 440.244 715.647C438.516 713.703 435.897 712.731 432.387 712.731Z" fill="black"/>
<path d="M570.632 675.494C578.786 675.818 584.753 677.6 588.533 680.84C592.367 684.08 594.284 688.481 594.284 694.043C594.284 696.527 593.852 698.822 592.988 700.928C592.178 703.034 590.909 704.843 589.181 706.355C587.507 707.867 585.374 709.055 582.782 709.919C580.19 710.783 577.112 711.215 573.548 711.215C572.144 711.215 570.713 711.107 569.255 710.891C567.797 710.675 566.447 710.405 565.205 710.081C563.963 709.757 562.856 709.433 561.884 709.109C560.912 708.785 560.21 708.515 559.778 708.299L561.236 701.738C562.154 702.17 563.639 702.737 565.691 703.439C567.797 704.141 570.362 704.492 573.386 704.492C575.816 704.492 577.841 704.222 579.461 703.682C581.135 703.142 582.485 702.413 583.511 701.495C584.537 700.577 585.266 699.524 585.698 698.336C586.184 697.094 586.427 695.798 586.427 694.448C586.427 692.396 586.076 690.587 585.374 689.021C584.672 687.401 583.43 686.051 581.648 684.971C579.866 683.891 577.49 683.081 574.52 682.541C571.55 681.947 567.797 681.65 563.261 681.65C563.585 679.004 563.828 676.52 563.99 674.198C564.206 671.876 564.395 669.608 564.557 667.394C564.719 665.18 564.854 662.993 564.962 660.833C565.07 658.619 565.178 656.297 565.286 653.867H592.34V660.266H571.847C571.793 661.076 571.712 662.183 571.604 663.587C571.496 664.937 571.388 666.368 571.28 667.88C571.172 669.338 571.064 670.769 570.956 672.173C570.848 673.577 570.74 674.684 570.632 675.494Z" fill="black"/>
<path d="M657.753 591.56C658.779 589.184 660.183 586.43 661.965 583.298C663.747 580.112 665.745 576.845 667.959 573.497C670.227 570.149 672.63 566.855 675.168 563.615C677.76 560.375 680.352 557.459 682.944 554.867H690.153V590.507H696.795V596.663H690.153V611H682.863V596.663H657.753V591.56ZM682.863 563.777C681.243 565.505 679.596 567.449 677.922 569.609C676.302 571.715 674.709 573.929 673.143 576.251C671.577 578.573 670.092 580.949 668.688 583.379C667.338 585.809 666.123 588.185 665.043 590.507H682.863V563.777Z" fill="black"/>
<path d="M722.819 456.492C727.625 456.492 731.054 455.547 733.106 453.657C735.212 451.767 736.265 449.229 736.265 446.043C736.265 443.991 735.833 442.263 734.969 440.859C734.105 439.455 732.971 438.348 731.567 437.538C730.163 436.674 728.516 436.08 726.626 435.756C724.79 435.378 722.9 435.189 720.956 435.189H719.012V429.033H721.685C723.035 429.033 724.412 428.898 725.816 428.628C727.274 428.358 728.597 427.872 729.785 427.17C730.973 426.468 731.945 425.523 732.701 424.335C733.457 423.093 733.835 421.554 733.835 419.718C733.835 418.206 733.565 416.91 733.025 415.83C732.485 414.75 731.756 413.859 730.838 413.157C729.974 412.455 728.948 411.969 727.76 411.699C726.626 411.375 725.411 411.213 724.115 411.213C721.523 411.213 719.309 411.591 717.473 412.347C715.691 413.103 714.179 413.886 712.937 414.696L710.021 408.945C710.669 408.513 711.479 408.054 712.451 407.568C713.477 407.028 714.611 406.542 715.853 406.11C717.095 405.678 718.418 405.327 719.822 405.057C721.28 404.733 722.792 404.571 724.358 404.571C727.328 404.571 729.893 404.949 732.053 405.705C734.213 406.407 735.995 407.433 737.399 408.783C738.803 410.079 739.856 411.645 740.558 413.481C741.26 415.263 741.611 417.207 741.611 419.313C741.611 422.229 740.774 424.74 739.1 426.846C737.426 428.898 735.401 430.464 733.025 431.544C734.483 431.976 735.887 432.597 737.237 433.407C738.587 434.217 739.748 435.243 740.72 436.485C741.746 437.727 742.556 439.158 743.15 440.778C743.798 442.398 744.122 444.207 744.122 446.205C744.122 448.635 743.69 450.903 742.826 453.009C742.016 455.061 740.72 456.843 738.938 458.355C737.21 459.867 735.023 461.055 732.377 461.919C729.731 462.783 726.599 463.215 722.981 463.215C721.577 463.215 720.119 463.107 718.607 462.891C717.149 462.675 715.772 462.405 714.476 462.081C713.18 461.757 712.046 461.433 711.074 461.109C710.102 460.785 709.4 460.515 708.968 460.299L710.426 453.738C711.344 454.17 712.856 454.737 714.962 455.439C717.122 456.141 719.741 456.492 722.819 456.492Z" fill="black"/>
<path d="M691.961 290.23C691.961 292.174 691.556 294.064 690.746 295.9C689.99 297.682 688.964 299.464 687.668 301.246C686.372 302.974 684.914 304.702 683.294 306.43C681.674 308.104 680.054 309.751 678.434 311.371C677.516 312.289 676.436 313.369 675.194 314.611C674.006 315.853 672.872 317.149 671.792 318.499C670.712 319.849 669.794 321.145 669.038 322.387C668.336 323.629 667.985 324.709 667.985 325.627H693.824V332.026H659.804C659.75 331.702 659.723 331.378 659.723 331.054C659.723 330.73 659.723 330.433 659.723 330.163C659.723 327.625 660.128 325.276 660.938 323.116C661.802 320.902 662.909 318.823 664.259 316.879C665.609 314.935 667.121 313.099 668.795 311.371C670.469 309.643 672.116 307.969 673.736 306.349C675.086 305.053 676.355 303.784 677.543 302.542C678.785 301.246 679.865 299.977 680.783 298.735C681.755 297.439 682.511 296.116 683.051 294.766C683.645 293.416 683.942 291.985 683.942 290.473C683.942 288.853 683.672 287.476 683.132 286.342C682.646 285.208 681.971 284.263 681.107 283.507C680.243 282.751 679.217 282.211 678.029 281.887C676.895 281.509 675.68 281.32 674.384 281.32C672.818 281.32 671.387 281.536 670.091 281.968C668.795 282.4 667.634 282.913 666.608 283.507C665.582 284.047 664.718 284.641 664.016 285.289C663.314 285.883 662.774 286.342 662.396 286.666L658.67 281.32C659.156 280.78 659.885 280.132 660.857 279.376C661.829 278.566 662.99 277.81 664.34 277.108C665.69 276.406 667.202 275.812 668.876 275.326C670.55 274.84 672.359 274.597 674.303 274.597C680.189 274.597 684.59 275.974 687.506 278.728C690.476 281.428 691.961 285.262 691.961 290.23Z" fill="black"/>
<path d="M563.706 181.829C566.784 180.641 569.781 179.129 572.697 177.293C575.613 175.403 578.286 173.054 580.716 170.246H586.062V226.379H578.529V180.695C577.881 181.289 577.071 181.91 576.099 182.558C575.181 183.206 574.155 183.827 573.021 184.421C571.941 185.015 570.78 185.582 569.538 186.122C568.35 186.662 567.189 187.121 566.055 187.499L563.706 181.829Z" fill="black"/>
<path d="M393.812 138.45C396.89 137.262 399.887 135.75 402.803 133.914C405.719 132.024 408.392 129.675 410.822 126.867H416.168V183H408.635V137.316C407.987 137.91 407.177 138.531 406.205 139.179C405.287 139.827 404.261 140.448 403.127 141.042C402.047 141.636 400.886 142.203 399.644 142.743C398.456 143.283 397.295 143.742 396.161 144.12L393.812 138.45ZM469.827 141.204C469.827 143.148 469.422 145.038 468.612 146.874C467.856 148.656 466.83 150.438 465.534 152.22C464.238 153.948 462.78 155.676 461.16 157.404C459.54 159.078 457.92 160.725 456.3 162.345C455.382 163.263 454.302 164.343 453.06 165.585C451.872 166.827 450.738 168.123 449.658 169.473C448.578 170.823 447.66 172.119 446.904 173.361C446.202 174.603 445.851 175.683 445.851 176.601H471.69V183H437.67C437.616 182.676 437.589 182.352 437.589 182.028C437.589 181.704 437.589 181.407 437.589 181.137C437.589 178.599 437.994 176.25 438.804 174.09C439.668 171.876 440.775 169.797 442.125 167.853C443.475 165.909 444.987 164.073 446.661 162.345C448.335 160.617 449.982 158.943 451.602 157.323C452.952 156.027 454.221 154.758 455.409 153.516C456.651 152.22 457.731 150.951 458.649 149.709C459.621 148.413 460.377 147.09 460.917 145.74C461.511 144.39 461.808 142.959 461.808 141.447C461.808 139.827 461.538 138.45 460.998 137.316C460.512 136.182 459.837 135.237 458.973 134.481C458.109 133.725 457.083 133.185 455.895 132.861C454.761 132.483 453.546 132.294 452.25 132.294C450.684 132.294 449.253 132.51 447.957 132.942C446.661 133.374 445.5 133.887 444.474 134.481C443.448 135.021 442.584 135.615 441.882 136.263C441.18 136.857 440.64 137.316 440.262 137.64L436.536 132.294C437.022 131.754 437.751 131.106 438.723 130.35C439.695 129.54 440.856 128.784 442.206 128.082C443.556 127.38 445.068 126.786 446.742 126.3C448.416 125.814 450.225 125.571 452.169 125.571C458.055 125.571 462.456 126.948 465.372 129.702C468.342 132.402 469.827 136.236 469.827 141.204Z" fill="black"/>
</g>
<circle cx="432" cy="432" r="21" fill="black"/>
<defs>
<filter id="filter0_d_1_73" x="0" y="0" width="864" height="864" filterUnits="userSpaceOnUse" color-interpolation-filters="sRGB">
<feFlood flood-opacity="0" result="BackgroundImageFix"/>
<feColorMatrix in="SourceAlpha" type="matrix" values="0 0 0 0 0 0 0 0 0 0 0 0 0 0 0 0 0 0 127 0" result="hardAlpha"/>
<feOffset/>
<feGaussianBlur stdDeviation="16"/>
<feComposite in2="hardAlpha" operator="out"/>
<feColorMatrix type="matrix" values="0 0 0 0 0.882353 0 0 0 0 0.627451 0 0 0 0 0.372549 0 0 0 1 0"/>
<feBlend mode="normal" in2="BackgroundImageFix" result="effect1_dropShadow_1_73"/>
<feBlend mode="normal" in="SourceGraphic" in2="effect1_dropShadow_1_73" result="shape"/>
</filter>
<filter id="filter1_i_1_73" x="85" y="85" width="694" height="694" filterUnits="userSpaceOnUse" color-interpolation-filters="sRGB">
<feFlood flood-opacity="0" result="BackgroundImageFix"/>
<feBlend mode="normal" in="SourceGraphic" in2="BackgroundImageFix" result="shape"/>
<feColorMatrix in="SourceAlpha" type="matrix" values="0 0 0 0 0 0 0 0 0 0 0 0 0 0 0 0 0 0 127 0" result="hardAlpha"/>
<feOffset/>
<feGaussianBlur stdDeviation="25"/>
<feComposite in2="hardAlpha" operator="arithmetic" k2="-1" k3="1"/>
<feColorMatrix type="matrix" values="0 0 0 0 0.779167 0 0 0 0 0.512518 0 0 0 0 0.207778 0 0 0 0.64 0"/>
<feBlend mode="normal" in2="shape" result="effect1_innerShadow_1_73"/>
</filter>
<filter id="filter2_d_1_73" x="109.644" y="117.571" width="642.477" height="632.644" filterUnits="userSpaceOnUse" color-interpolation-filters="sRGB">
<feFlood flood-opacity="0" result="BackgroundImageFix"/>
<feColorMatrix in="SourceAlpha" type="matrix" values="0 0 0 0 0 0 0 0 0 0 0 0 0 0 0 0 0 0 127 0" result="hardAlpha"/>
<feOffset/>
<feGaussianBlur stdDeviation="4"/>
<feComposite in2="hardAlpha" operator="out"/>
<feColorMatrix type="matrix" values="0 0 0 0 0 0 0 0 0 0 0 0 0 0 0 0 0 0 0.36 0"/>
<feBlend mode="normal" in2="BackgroundImageFix" result="effect1_dropShadow_1_73"/>
<feBlend mode="normal" in="SourceGraphic" in2="effect1_dropShadow_1_73" result="shape"/>
</filter>
<radialGradient id="paint0_radial_1_73" cx="0" cy="0" r="1" gradientUnits="userSpaceOnUse" gradientTransform="translate(432 432) rotate(90) scale(400)">
<stop stop-color="white" stop-opacity="0"/>
<stop offset="0.865" stop-color="#D8984E"/>
<stop offset="0.93" stop-color="#C78335"/>
<stop offset="1" stop-color="#E1A05F"/>
</radialGradient>
</defs>
</svg>
